<svg viewBox="-2.0 -2.0 4.0 4.0" xmlns="http://www.w3.org/2000/svg" xmlns:xlink="http://www.w3.org/1999/xlink" version="1.1" width="400.0" height="400.0"><g stroke-width="3.0e-3" stroke="#2C429D" fill="#032F74" fill-opacity="0.8" stroke-opacity="0.4"><path d="M0.0,-1.2320508075688774 A0.5 0.5 0.0 1 1 1.0,0.5 1.0 1.0 0.0 0 0 0.5,-0.3660254037844387 1.0 1.0 0.0 0 0 0.0,-1.2320508075688774 Z" /></g><g stroke-width="3.0e-3" stroke="#2C429D" fill="#003601" fill-opacity="0.8" stroke-opacity="0.4"><path d="M-1.0,0.5 A0.5 0.5 0.0 1 0 1.0,0.5 1.0 1.0 0.0 0 1 0.0,0.5 1.0 1.0 0.0 0 1 -1.0,0.5 Z" /></g><g stroke-width="3.0e-3" stroke="#2C429D" fill="#065906" fill-opacity="0.8" stroke-opacity="0.4"><path d="M-1.0,0.5 A0.5 0.5 0.0 1 1 0.0,-1.2320508075688774 1.0 1.0 0.0 0 0 -0.5,-0.3660254037844387 1.0 1.0 0.0 0 0 -1.0,0.5 Z" /></g><g stroke-width="3.0e-3" stroke="#2C429D" fill="#AC0505" fill-opacity="0.8" stroke-opacity="0.4"><path d="M0.0,-1.2320508075688774 A1.0 1.0 0.0 0 1 0.5,-0.3660254037844387 1.0 1.0 0.0 0 0 -0.5,-0.3660254037844387 1.0 1.0 0.0 0 1 0.0,-1.2320508075688774 Z" /></g><g stroke-width="3.0e-3" stroke="#2C429D" fill="#4B2282" fill-opacity="0.8" stroke-opacity="0.4"><path d="M0.5,-0.3660254037844387 A1.0 1.0 0.0 0 1 1.0,0.5 1.0 1.0 0.0 0 1 0.0,0.5 1.0 1.0 0.0 0 0 0.5,-0.3660254037844387 Z" /></g><g stroke-width="3.0e-3" stroke="#2C429D" fill="#431712" fill-opacity="0.8" stroke-opacity="0.4"><path d="M0.0,0.5 A1.0 1.0 0.0 0 1 -1.0,0.5 1.0 1.0 0.0 0 1 -0.5,-0.3660254037844387 1.0 1.0 0.0 0 0 0.0,0.5 Z" /></g><g stroke-width="3.0e-3" stroke="#2C429D" fill="#C42F8A" fill-opacity="0.8" stroke-opacity="0.4"><path d="M0.5,-0.3660254037844387 A1.0 1.0 0.0 0 1 0.0,0.5 1.0 1.0 0.0 0 1 -0.5,-0.3660254037844387 1.0 1.0 0.0 0 1 0.5,-0.3660254037844387 Z" /></g></svg>